<mxfile host="app.diagrams.net" agent="Mozilla/5.0 (Macintosh; Intel Mac OS X 10_15_7) AppleWebKit/605.1.15 (KHTML, like Gecko) Version/18.4 Safari/605.1.15" version="28.0.4">
  <diagram name="Page-1" id="Prld9Db6RoJRbxSjJ47J">
    <mxGraphModel dx="976" dy="672" grid="1" gridSize="10" guides="1" tooltips="1" connect="1" arrows="1" fold="1" page="1" pageScale="1" pageWidth="827" pageHeight="1169" math="0" shadow="0">
      <root>
        <mxCell id="0" />
        <mxCell id="1" parent="0" />
        <mxCell id="_dU9NBsAX1QTBCmmcqbf-1" value="Member" style="rounded=0;whiteSpace=wrap;html=1;fillColor=#E1D5E7;" vertex="1" parent="1">
          <mxGeometry x="190" y="160" width="110" height="50" as="geometry" />
        </mxCell>
        <mxCell id="_dU9NBsAX1QTBCmmcqbf-2" value="Book" style="rounded=0;whiteSpace=wrap;html=1;fillColor=#E1D5E7;" vertex="1" parent="1">
          <mxGeometry x="195" y="380" width="110" height="50" as="geometry" />
        </mxCell>
        <mxCell id="_dU9NBsAX1QTBCmmcqbf-3" value="&lt;u&gt;memberID&lt;/u&gt;" style="ellipse;whiteSpace=wrap;html=1;" vertex="1" parent="1">
          <mxGeometry x="30" y="120" width="100" height="50" as="geometry" />
        </mxCell>
        <mxCell id="_dU9NBsAX1QTBCmmcqbf-4" value="name" style="ellipse;whiteSpace=wrap;html=1;" vertex="1" parent="1">
          <mxGeometry x="200" y="80" width="100" height="50" as="geometry" />
        </mxCell>
        <mxCell id="_dU9NBsAX1QTBCmmcqbf-6" value="fname" style="ellipse;whiteSpace=wrap;html=1;" vertex="1" parent="1">
          <mxGeometry x="130" y="20" width="80" height="40" as="geometry" />
        </mxCell>
        <mxCell id="_dU9NBsAX1QTBCmmcqbf-7" value="lname" style="ellipse;whiteSpace=wrap;html=1;" vertex="1" parent="1">
          <mxGeometry x="230" y="20" width="90" height="40" as="geometry" />
        </mxCell>
        <mxCell id="_dU9NBsAX1QTBCmmcqbf-8" value="nickname" style="ellipse;whiteSpace=wrap;html=1;" vertex="1" parent="1">
          <mxGeometry x="340" y="20" width="90" height="40" as="geometry" />
        </mxCell>
        <mxCell id="_dU9NBsAX1QTBCmmcqbf-9" value="email" style="ellipse;whiteSpace=wrap;html=1;" vertex="1" parent="1">
          <mxGeometry x="350" y="110" width="100" height="50" as="geometry" />
        </mxCell>
        <mxCell id="_dU9NBsAX1QTBCmmcqbf-10" value="&lt;u&gt;bookID&lt;/u&gt;" style="ellipse;whiteSpace=wrap;html=1;" vertex="1" parent="1">
          <mxGeometry x="130" y="470" width="100" height="50" as="geometry" />
        </mxCell>
        <mxCell id="_dU9NBsAX1QTBCmmcqbf-11" value="title" style="ellipse;whiteSpace=wrap;html=1;" vertex="1" parent="1">
          <mxGeometry x="40" y="410" width="100" height="50" as="geometry" />
        </mxCell>
        <mxCell id="_dU9NBsAX1QTBCmmcqbf-13" value="author&amp;nbsp;" style="ellipse;whiteSpace=wrap;html=1;" vertex="1" parent="1">
          <mxGeometry x="270" y="470" width="100" height="50" as="geometry" />
        </mxCell>
        <mxCell id="_dU9NBsAX1QTBCmmcqbf-14" value="isAvailable" style="ellipse;whiteSpace=wrap;html=1;" vertex="1" parent="1">
          <mxGeometry x="350" y="410" width="100" height="50" as="geometry" />
        </mxCell>
        <mxCell id="_dU9NBsAX1QTBCmmcqbf-15" value="&lt;span style=&quot;font-family: -webkit-standard; font-size: medium; text-align: start;&quot;&gt;BORROWS&lt;/span&gt;" style="rhombus;whiteSpace=wrap;html=1;strokeColor=#000000;fillColor=#E6E6E6;" vertex="1" parent="1">
          <mxGeometry x="175" y="250" width="150" height="80" as="geometry" />
        </mxCell>
        <mxCell id="_dU9NBsAX1QTBCmmcqbf-18" value="" style="endArrow=none;html=1;rounded=0;exitX=1;exitY=0.5;exitDx=0;exitDy=0;" edge="1" parent="1" source="_dU9NBsAX1QTBCmmcqbf-1">
          <mxGeometry width="50" height="50" relative="1" as="geometry">
            <mxPoint x="360" y="350" as="sourcePoint" />
            <mxPoint x="350" y="140" as="targetPoint" />
            <Array as="points" />
          </mxGeometry>
        </mxCell>
        <mxCell id="_dU9NBsAX1QTBCmmcqbf-19" value="" style="endArrow=none;html=1;rounded=0;entryX=1;entryY=0.5;entryDx=0;entryDy=0;" edge="1" parent="1" target="_dU9NBsAX1QTBCmmcqbf-3">
          <mxGeometry width="50" height="50" relative="1" as="geometry">
            <mxPoint x="190" y="170" as="sourcePoint" />
            <mxPoint x="500" y="250" as="targetPoint" />
            <Array as="points" />
          </mxGeometry>
        </mxCell>
        <mxCell id="_dU9NBsAX1QTBCmmcqbf-33" value="1" style="text;html=1;align=center;verticalAlign=middle;whiteSpace=wrap;rounded=0;" vertex="1" parent="1">
          <mxGeometry x="240" y="235" width="60" height="30" as="geometry" />
        </mxCell>
        <mxCell id="_dU9NBsAX1QTBCmmcqbf-36" value="" style="endArrow=none;html=1;rounded=0;exitX=1;exitY=0.5;exitDx=0;exitDy=0;entryX=0.008;entryY=0.367;entryDx=0;entryDy=0;entryPerimeter=0;" edge="1" parent="1" source="_dU9NBsAX1QTBCmmcqbf-1" target="_dU9NBsAX1QTBCmmcqbf-37">
          <mxGeometry width="50" height="50" relative="1" as="geometry">
            <mxPoint x="330" y="195" as="sourcePoint" />
            <mxPoint x="390" y="200" as="targetPoint" />
            <Array as="points" />
          </mxGeometry>
        </mxCell>
        <mxCell id="_dU9NBsAX1QTBCmmcqbf-37" value="" style="ellipse;whiteSpace=wrap;html=1;" vertex="1" parent="1">
          <mxGeometry x="400" y="180" width="130" height="60" as="geometry" />
        </mxCell>
        <mxCell id="_dU9NBsAX1QTBCmmcqbf-34" value="phone" style="ellipse;whiteSpace=wrap;html=1;" vertex="1" parent="1">
          <mxGeometry x="414" y="185" width="100" height="50" as="geometry" />
        </mxCell>
        <mxCell id="_dU9NBsAX1QTBCmmcqbf-38" value="N" style="text;html=1;align=center;verticalAlign=middle;whiteSpace=wrap;rounded=0;" vertex="1" parent="1">
          <mxGeometry x="245" y="330" width="60" height="30" as="geometry" />
        </mxCell>
        <mxCell id="_dU9NBsAX1QTBCmmcqbf-39" value="" style="endArrow=none;html=1;rounded=0;entryX=0.5;entryY=0;entryDx=0;entryDy=0;" edge="1" parent="1" source="_dU9NBsAX1QTBCmmcqbf-15" target="_dU9NBsAX1QTBCmmcqbf-2">
          <mxGeometry width="50" height="50" relative="1" as="geometry">
            <mxPoint x="360" y="350" as="sourcePoint" />
            <mxPoint x="410" y="300" as="targetPoint" />
          </mxGeometry>
        </mxCell>
        <mxCell id="_dU9NBsAX1QTBCmmcqbf-40" value="" style="endArrow=none;html=1;rounded=0;exitX=0.5;exitY=1;exitDx=0;exitDy=0;" edge="1" parent="1" source="_dU9NBsAX1QTBCmmcqbf-1">
          <mxGeometry width="50" height="50" relative="1" as="geometry">
            <mxPoint x="280" y="350" as="sourcePoint" />
            <mxPoint x="250" y="250" as="targetPoint" />
          </mxGeometry>
        </mxCell>
        <mxCell id="_dU9NBsAX1QTBCmmcqbf-41" value="" style="endArrow=none;html=1;rounded=0;exitX=1;exitY=0.25;exitDx=0;exitDy=0;entryX=0;entryY=0;entryDx=0;entryDy=0;" edge="1" parent="1" source="_dU9NBsAX1QTBCmmcqbf-2" target="_dU9NBsAX1QTBCmmcqbf-14">
          <mxGeometry width="50" height="50" relative="1" as="geometry">
            <mxPoint x="360" y="350" as="sourcePoint" />
            <mxPoint x="410" y="300" as="targetPoint" />
          </mxGeometry>
        </mxCell>
        <mxCell id="_dU9NBsAX1QTBCmmcqbf-42" value="" style="endArrow=none;html=1;rounded=0;exitX=0.75;exitY=1;exitDx=0;exitDy=0;" edge="1" parent="1" source="_dU9NBsAX1QTBCmmcqbf-2" target="_dU9NBsAX1QTBCmmcqbf-13">
          <mxGeometry width="50" height="50" relative="1" as="geometry">
            <mxPoint x="450" y="360" as="sourcePoint" />
            <mxPoint x="510" y="384" as="targetPoint" />
          </mxGeometry>
        </mxCell>
        <mxCell id="_dU9NBsAX1QTBCmmcqbf-43" value="" style="endArrow=none;html=1;rounded=0;exitX=0;exitY=1;exitDx=0;exitDy=0;" edge="1" parent="1" source="_dU9NBsAX1QTBCmmcqbf-2" target="_dU9NBsAX1QTBCmmcqbf-10">
          <mxGeometry width="50" height="50" relative="1" as="geometry">
            <mxPoint x="520" y="500" as="sourcePoint" />
            <mxPoint x="547" y="541" as="targetPoint" />
          </mxGeometry>
        </mxCell>
        <mxCell id="_dU9NBsAX1QTBCmmcqbf-44" value="" style="endArrow=none;html=1;rounded=0;exitX=0;exitY=0.5;exitDx=0;exitDy=0;entryX=1;entryY=0.5;entryDx=0;entryDy=0;" edge="1" parent="1" source="_dU9NBsAX1QTBCmmcqbf-2" target="_dU9NBsAX1QTBCmmcqbf-11">
          <mxGeometry width="50" height="50" relative="1" as="geometry">
            <mxPoint x="199" y="470" as="sourcePoint" />
            <mxPoint x="190" y="510" as="targetPoint" />
          </mxGeometry>
        </mxCell>
        <mxCell id="_dU9NBsAX1QTBCmmcqbf-45" value="" style="endArrow=none;html=1;rounded=0;exitX=0.5;exitY=0;exitDx=0;exitDy=0;entryX=0.5;entryY=1;entryDx=0;entryDy=0;" edge="1" parent="1" source="_dU9NBsAX1QTBCmmcqbf-1" target="_dU9NBsAX1QTBCmmcqbf-4">
          <mxGeometry width="50" height="50" relative="1" as="geometry">
            <mxPoint x="320" y="195" as="sourcePoint" />
            <mxPoint x="370" y="150" as="targetPoint" />
            <Array as="points" />
          </mxGeometry>
        </mxCell>
        <mxCell id="_dU9NBsAX1QTBCmmcqbf-46" value="" style="endArrow=none;html=1;rounded=0;exitX=0.65;exitY=0.02;exitDx=0;exitDy=0;entryX=0.433;entryY=1;entryDx=0;entryDy=0;exitPerimeter=0;entryPerimeter=0;" edge="1" parent="1" source="_dU9NBsAX1QTBCmmcqbf-4" target="_dU9NBsAX1QTBCmmcqbf-7">
          <mxGeometry width="50" height="50" relative="1" as="geometry">
            <mxPoint x="240" y="150" as="sourcePoint" />
            <mxPoint x="245" y="120" as="targetPoint" />
            <Array as="points" />
          </mxGeometry>
        </mxCell>
        <mxCell id="_dU9NBsAX1QTBCmmcqbf-47" value="" style="endArrow=none;html=1;rounded=0;" edge="1" parent="1" source="_dU9NBsAX1QTBCmmcqbf-4" target="_dU9NBsAX1QTBCmmcqbf-8">
          <mxGeometry width="50" height="50" relative="1" as="geometry">
            <mxPoint x="260" y="80" as="sourcePoint" />
            <mxPoint x="285" y="60" as="targetPoint" />
            <Array as="points" />
          </mxGeometry>
        </mxCell>
        <mxCell id="_dU9NBsAX1QTBCmmcqbf-48" value="" style="endArrow=none;html=1;rounded=0;entryX=1;entryY=1;entryDx=0;entryDy=0;exitX=0;exitY=0;exitDx=0;exitDy=0;" edge="1" parent="1" source="_dU9NBsAX1QTBCmmcqbf-4" target="_dU9NBsAX1QTBCmmcqbf-6">
          <mxGeometry width="50" height="50" relative="1" as="geometry">
            <mxPoint x="340" y="113" as="sourcePoint" />
            <mxPoint x="408" y="80" as="targetPoint" />
            <Array as="points" />
          </mxGeometry>
        </mxCell>
        <mxCell id="_dU9NBsAX1QTBCmmcqbf-50" value="" style="endArrow=none;html=1;rounded=0;entryX=0.573;entryY=0;entryDx=0;entryDy=0;entryPerimeter=0;exitX=0.553;exitY=0.942;exitDx=0;exitDy=0;exitPerimeter=0;" edge="1" parent="1" source="_dU9NBsAX1QTBCmmcqbf-15" target="_dU9NBsAX1QTBCmmcqbf-2">
          <mxGeometry width="50" height="50" relative="1" as="geometry">
            <mxPoint x="258" y="330" as="sourcePoint" />
            <mxPoint x="250" y="400" as="targetPoint" />
          </mxGeometry>
        </mxCell>
        <mxCell id="_dU9NBsAX1QTBCmmcqbf-51" value="" style="endArrow=none;html=1;rounded=0;exitX=1;exitY=0.5;exitDx=0;exitDy=0;" edge="1" parent="1" source="_dU9NBsAX1QTBCmmcqbf-15">
          <mxGeometry width="50" height="50" relative="1" as="geometry">
            <mxPoint x="360" y="350" as="sourcePoint" />
            <mxPoint x="410" y="290" as="targetPoint" />
          </mxGeometry>
        </mxCell>
        <mxCell id="_dU9NBsAX1QTBCmmcqbf-52" value="timeOut" style="ellipse;whiteSpace=wrap;html=1;" vertex="1" parent="1">
          <mxGeometry x="370" y="265" width="100" height="50" as="geometry" />
        </mxCell>
        <mxCell id="_dU9NBsAX1QTBCmmcqbf-53" value="" style="endArrow=none;html=1;rounded=0;entryX=0;entryY=0.5;entryDx=0;entryDy=0;" edge="1" parent="1" target="_dU9NBsAX1QTBCmmcqbf-15">
          <mxGeometry width="50" height="50" relative="1" as="geometry">
            <mxPoint x="130" y="290" as="sourcePoint" />
            <mxPoint x="465" y="290" as="targetPoint" />
          </mxGeometry>
        </mxCell>
        <mxCell id="_dU9NBsAX1QTBCmmcqbf-55" value="timeIn" style="ellipse;whiteSpace=wrap;html=1;" vertex="1" parent="1">
          <mxGeometry x="30" y="265" width="100" height="50" as="geometry" />
        </mxCell>
        <mxCell id="_dU9NBsAX1QTBCmmcqbf-57" value="User" style="rounded=0;whiteSpace=wrap;html=1;fillColor=#E6FFCC;" vertex="1" parent="1">
          <mxGeometry x="615" y="705" width="90" height="40" as="geometry" />
        </mxCell>
        <mxCell id="_dU9NBsAX1QTBCmmcqbf-58" value="Movie" style="rounded=0;whiteSpace=wrap;html=1;fillColor=#E6FFCC;" vertex="1" parent="1">
          <mxGeometry x="175" y="995" width="90" height="40" as="geometry" />
        </mxCell>
        <mxCell id="_dU9NBsAX1QTBCmmcqbf-59" value="Review" style="rounded=0;whiteSpace=wrap;html=1;fillColor=#E6FFCC;" vertex="1" parent="1">
          <mxGeometry x="180" y="720" width="90" height="40" as="geometry" />
        </mxCell>
        <mxCell id="_dU9NBsAX1QTBCmmcqbf-60" value="Genre" style="rounded=0;whiteSpace=wrap;html=1;fillColor=#E6FFCC;" vertex="1" parent="1">
          <mxGeometry x="615" y="920" width="90" height="40" as="geometry" />
        </mxCell>
        <mxCell id="_dU9NBsAX1QTBCmmcqbf-61" value="&lt;u&gt;userID&lt;/u&gt;" style="ellipse;whiteSpace=wrap;html=1;" vertex="1" parent="1">
          <mxGeometry x="510" y="620" width="100" height="50" as="geometry" />
        </mxCell>
        <mxCell id="_dU9NBsAX1QTBCmmcqbf-62" value="username" style="ellipse;whiteSpace=wrap;html=1;" vertex="1" parent="1">
          <mxGeometry x="610" y="585" width="100" height="50" as="geometry" />
        </mxCell>
        <mxCell id="_dU9NBsAX1QTBCmmcqbf-64" value="email" style="ellipse;whiteSpace=wrap;html=1;" vertex="1" parent="1">
          <mxGeometry x="700" y="630" width="100" height="50" as="geometry" />
        </mxCell>
        <mxCell id="_dU9NBsAX1QTBCmmcqbf-65" value="phone" style="ellipse;shape=doubleEllipse;margin=3;whiteSpace=wrap;html=1;align=center;" vertex="1" parent="1">
          <mxGeometry x="710" y="705" width="100" height="40" as="geometry" />
        </mxCell>
        <mxCell id="_dU9NBsAX1QTBCmmcqbf-66" value="&lt;u&gt;reviewID&lt;/u&gt;" style="ellipse;whiteSpace=wrap;html=1;" vertex="1" parent="1">
          <mxGeometry x="50" y="760" width="100" height="50" as="geometry" />
        </mxCell>
        <mxCell id="_dU9NBsAX1QTBCmmcqbf-67" value="rating" style="ellipse;whiteSpace=wrap;html=1;" vertex="1" parent="1">
          <mxGeometry x="40" y="690" width="100" height="50" as="geometry" />
        </mxCell>
        <mxCell id="_dU9NBsAX1QTBCmmcqbf-68" value="reviewText" style="ellipse;whiteSpace=wrap;html=1;" vertex="1" parent="1">
          <mxGeometry x="140" y="645" width="100" height="50" as="geometry" />
        </mxCell>
        <mxCell id="_dU9NBsAX1QTBCmmcqbf-69" value="reviewDate" style="ellipse;whiteSpace=wrap;html=1;" vertex="1" parent="1">
          <mxGeometry x="260" y="620" width="100" height="50" as="geometry" />
        </mxCell>
        <mxCell id="_dU9NBsAX1QTBCmmcqbf-70" value="&lt;u&gt;movieID&lt;/u&gt;" style="ellipse;whiteSpace=wrap;html=1;" vertex="1" parent="1">
          <mxGeometry y="970" width="100" height="50" as="geometry" />
        </mxCell>
        <mxCell id="_dU9NBsAX1QTBCmmcqbf-71" value="&amp;nbsp; &amp;nbsp;title&amp;nbsp;" style="ellipse;whiteSpace=wrap;html=1;" vertex="1" parent="1">
          <mxGeometry x="20" y="1035" width="100" height="50" as="geometry" />
        </mxCell>
        <mxCell id="_dU9NBsAX1QTBCmmcqbf-72" value="releaseYear" style="ellipse;whiteSpace=wrap;html=1;" vertex="1" parent="1">
          <mxGeometry x="175" y="1100" width="100" height="50" as="geometry" />
        </mxCell>
        <mxCell id="_dU9NBsAX1QTBCmmcqbf-75" value="posterImage" style="ellipse;whiteSpace=wrap;html=1;" vertex="1" parent="1">
          <mxGeometry x="60" y="1090" width="100" height="50" as="geometry" />
        </mxCell>
        <mxCell id="_dU9NBsAX1QTBCmmcqbf-76" value="description" style="ellipse;whiteSpace=wrap;html=1;" vertex="1" parent="1">
          <mxGeometry x="280" y="1080" width="100" height="50" as="geometry" />
        </mxCell>
        <mxCell id="_dU9NBsAX1QTBCmmcqbf-77" value="&lt;u&gt;genreName&lt;/u&gt;" style="ellipse;whiteSpace=wrap;html=1;" vertex="1" parent="1">
          <mxGeometry x="610" y="990" width="100" height="50" as="geometry" />
        </mxCell>
        <mxCell id="_dU9NBsAX1QTBCmmcqbf-78" value="&lt;div style=&quot;text-align: start;&quot;&gt;&lt;span style=&quot;font-family: -webkit-standard; font-size: medium;&quot;&gt;Likes&lt;/span&gt;&lt;br&gt;&lt;/div&gt;" style="rhombus;whiteSpace=wrap;html=1;strokeColor=#000000;fillColor=#E6E6E6;" vertex="1" parent="1">
          <mxGeometry x="380" y="760" width="120" height="60" as="geometry" />
        </mxCell>
        <mxCell id="_dU9NBsAX1QTBCmmcqbf-79" value="&lt;div style=&quot;text-align: start;&quot;&gt;&lt;font size=&quot;3&quot; face=&quot;-webkit-standard&quot;&gt;Comment&lt;/font&gt;&lt;/div&gt;" style="rhombus;whiteSpace=wrap;html=1;strokeColor=#000000;fillColor=#E6E6E6;" vertex="1" parent="1">
          <mxGeometry x="380" y="655" width="120" height="55" as="geometry" />
        </mxCell>
        <mxCell id="_dU9NBsAX1QTBCmmcqbf-81" value="language" style="ellipse;shape=doubleEllipse;margin=3;whiteSpace=wrap;html=1;align=center;" vertex="1" parent="1">
          <mxGeometry x="340" y="1035" width="100" height="40" as="geometry" />
        </mxCell>
        <mxCell id="_dU9NBsAX1QTBCmmcqbf-83" value="&lt;div style=&quot;text-align: start;&quot;&gt;HAS_GENRE&lt;br&gt;&lt;/div&gt;" style="rhombus;whiteSpace=wrap;html=1;strokeColor=#000000;fillColor=#E6E6E6;" vertex="1" parent="1">
          <mxGeometry x="394" y="900" width="120" height="60" as="geometry" />
        </mxCell>
        <mxCell id="_dU9NBsAX1QTBCmmcqbf-84" value="" style="endArrow=none;html=1;rounded=0;entryX=0;entryY=0.5;entryDx=0;entryDy=0;exitX=1;exitY=0.5;exitDx=0;exitDy=0;" edge="1" parent="1" source="_dU9NBsAX1QTBCmmcqbf-79" target="_dU9NBsAX1QTBCmmcqbf-57">
          <mxGeometry relative="1" as="geometry">
            <mxPoint x="200" y="740" as="sourcePoint" />
            <mxPoint x="360" y="740" as="targetPoint" />
          </mxGeometry>
        </mxCell>
        <mxCell id="_dU9NBsAX1QTBCmmcqbf-85" value="" style="endArrow=none;html=1;rounded=0;entryX=1;entryY=0.5;entryDx=0;entryDy=0;exitX=0;exitY=0.5;exitDx=0;exitDy=0;" edge="1" parent="1" source="_dU9NBsAX1QTBCmmcqbf-57" target="_dU9NBsAX1QTBCmmcqbf-78">
          <mxGeometry relative="1" as="geometry">
            <mxPoint x="590" y="720" as="sourcePoint" />
            <mxPoint x="680" y="757" as="targetPoint" />
          </mxGeometry>
        </mxCell>
        <mxCell id="_dU9NBsAX1QTBCmmcqbf-86" value="" style="endArrow=none;html=1;rounded=0;entryX=0;entryY=0.5;entryDx=0;entryDy=0;exitX=1;exitY=0.5;exitDx=0;exitDy=0;" edge="1" parent="1" source="_dU9NBsAX1QTBCmmcqbf-59" target="_dU9NBsAX1QTBCmmcqbf-79">
          <mxGeometry relative="1" as="geometry">
            <mxPoint x="630" y="750" as="sourcePoint" />
            <mxPoint x="540" y="820" as="targetPoint" />
          </mxGeometry>
        </mxCell>
        <mxCell id="_dU9NBsAX1QTBCmmcqbf-87" value="" style="endArrow=none;html=1;rounded=0;entryX=0;entryY=0.5;entryDx=0;entryDy=0;exitX=1;exitY=0.5;exitDx=0;exitDy=0;" edge="1" parent="1" source="_dU9NBsAX1QTBCmmcqbf-59" target="_dU9NBsAX1QTBCmmcqbf-78">
          <mxGeometry relative="1" as="geometry">
            <mxPoint x="290" y="797" as="sourcePoint" />
            <mxPoint x="410" y="730" as="targetPoint" />
          </mxGeometry>
        </mxCell>
        <mxCell id="_dU9NBsAX1QTBCmmcqbf-88" value="" style="endArrow=none;html=1;rounded=0;exitX=0.03;exitY=0.545;exitDx=0;exitDy=0;exitPerimeter=0;" edge="1" parent="1" source="_dU9NBsAX1QTBCmmcqbf-79">
          <mxGeometry relative="1" as="geometry">
            <mxPoint x="550" y="700" as="sourcePoint" />
            <mxPoint x="280" y="740" as="targetPoint" />
          </mxGeometry>
        </mxCell>
        <mxCell id="_dU9NBsAX1QTBCmmcqbf-89" value="" style="endArrow=none;html=1;rounded=0;exitX=0.054;exitY=0.43;exitDx=0;exitDy=0;exitPerimeter=0;" edge="1" parent="1" source="_dU9NBsAX1QTBCmmcqbf-78">
          <mxGeometry relative="1" as="geometry">
            <mxPoint x="454" y="700" as="sourcePoint" />
            <mxPoint x="280" y="740" as="targetPoint" />
          </mxGeometry>
        </mxCell>
        <mxCell id="_dU9NBsAX1QTBCmmcqbf-90" value="1" style="text;html=1;align=center;verticalAlign=middle;whiteSpace=wrap;rounded=0;" vertex="1" parent="1">
          <mxGeometry x="470" y="690" width="60" height="30" as="geometry" />
        </mxCell>
        <mxCell id="_dU9NBsAX1QTBCmmcqbf-92" value="1" style="text;html=1;align=center;verticalAlign=middle;whiteSpace=wrap;rounded=0;" vertex="1" parent="1">
          <mxGeometry x="470" y="750" width="60" height="30" as="geometry" />
        </mxCell>
        <mxCell id="_dU9NBsAX1QTBCmmcqbf-93" value="N" style="text;html=1;align=center;verticalAlign=middle;whiteSpace=wrap;rounded=0;" vertex="1" parent="1">
          <mxGeometry x="354" y="750" width="60" height="30" as="geometry" />
        </mxCell>
        <mxCell id="_dU9NBsAX1QTBCmmcqbf-95" value="N" style="text;html=1;align=center;verticalAlign=middle;whiteSpace=wrap;rounded=0;" vertex="1" parent="1">
          <mxGeometry x="354" y="690" width="60" height="30" as="geometry" />
        </mxCell>
        <mxCell id="_dU9NBsAX1QTBCmmcqbf-96" value="&lt;div style=&quot;text-align: start;&quot;&gt;ABOUT_MOVIE&lt;br&gt;&lt;/div&gt;" style="rhombus;whiteSpace=wrap;html=1;strokeColor=#000000;fillColor=#E6E6E6;" vertex="1" parent="1">
          <mxGeometry x="160" y="840" width="120" height="60" as="geometry" />
        </mxCell>
        <mxCell id="_dU9NBsAX1QTBCmmcqbf-97" value="" style="endArrow=none;html=1;rounded=0;exitX=0.42;exitY=0.979;exitDx=0;exitDy=0;entryX=0.5;entryY=0;entryDx=0;entryDy=0;exitPerimeter=0;" edge="1" parent="1" source="_dU9NBsAX1QTBCmmcqbf-59" target="_dU9NBsAX1QTBCmmcqbf-96">
          <mxGeometry width="50" height="50" relative="1" as="geometry">
            <mxPoint x="370" y="870" as="sourcePoint" />
            <mxPoint x="420" y="820" as="targetPoint" />
          </mxGeometry>
        </mxCell>
        <mxCell id="_dU9NBsAX1QTBCmmcqbf-98" value="" style="endArrow=none;html=1;rounded=0;exitX=0.5;exitY=0;exitDx=0;exitDy=0;entryX=0.5;entryY=1;entryDx=0;entryDy=0;" edge="1" parent="1" source="_dU9NBsAX1QTBCmmcqbf-58" target="_dU9NBsAX1QTBCmmcqbf-96">
          <mxGeometry width="50" height="50" relative="1" as="geometry">
            <mxPoint x="210" y="800" as="sourcePoint" />
            <mxPoint x="212" y="881" as="targetPoint" />
          </mxGeometry>
        </mxCell>
        <mxCell id="_dU9NBsAX1QTBCmmcqbf-99" value="" style="endArrow=none;html=1;rounded=0;exitX=0;exitY=1;exitDx=0;exitDy=0;entryX=1;entryY=0.5;entryDx=0;entryDy=0;" edge="1" parent="1" source="_dU9NBsAX1QTBCmmcqbf-59" target="_dU9NBsAX1QTBCmmcqbf-66">
          <mxGeometry width="50" height="50" relative="1" as="geometry">
            <mxPoint x="210" y="800" as="sourcePoint" />
            <mxPoint x="212" y="881" as="targetPoint" />
          </mxGeometry>
        </mxCell>
        <mxCell id="_dU9NBsAX1QTBCmmcqbf-100" value="" style="endArrow=none;html=1;rounded=0;exitX=0;exitY=0;exitDx=0;exitDy=0;" edge="1" parent="1" source="_dU9NBsAX1QTBCmmcqbf-59" target="_dU9NBsAX1QTBCmmcqbf-67">
          <mxGeometry width="50" height="50" relative="1" as="geometry">
            <mxPoint x="200" y="760" as="sourcePoint" />
            <mxPoint x="170" y="785" as="targetPoint" />
          </mxGeometry>
        </mxCell>
        <mxCell id="_dU9NBsAX1QTBCmmcqbf-101" value="" style="endArrow=none;html=1;rounded=0;exitX=0;exitY=0;exitDx=0;exitDy=0;entryX=0.6;entryY=0.98;entryDx=0;entryDy=0;entryPerimeter=0;" edge="1" parent="1" target="_dU9NBsAX1QTBCmmcqbf-68">
          <mxGeometry width="50" height="50" relative="1" as="geometry">
            <mxPoint x="200" y="720" as="sourcePoint" />
            <mxPoint x="200" y="700" as="targetPoint" />
          </mxGeometry>
        </mxCell>
        <mxCell id="_dU9NBsAX1QTBCmmcqbf-102" value="" style="endArrow=none;html=1;rounded=0;exitX=1;exitY=0;exitDx=0;exitDy=0;entryX=0.328;entryY=0.967;entryDx=0;entryDy=0;entryPerimeter=0;" edge="1" parent="1" source="_dU9NBsAX1QTBCmmcqbf-59" target="_dU9NBsAX1QTBCmmcqbf-69">
          <mxGeometry width="50" height="50" relative="1" as="geometry">
            <mxPoint x="200" y="725" as="sourcePoint" />
            <mxPoint x="190" y="700" as="targetPoint" />
          </mxGeometry>
        </mxCell>
        <mxCell id="_dU9NBsAX1QTBCmmcqbf-103" value="" style="endArrow=none;html=1;rounded=0;exitX=1;exitY=0.5;exitDx=0;exitDy=0;entryX=0;entryY=0.5;entryDx=0;entryDy=0;" edge="1" parent="1" source="_dU9NBsAX1QTBCmmcqbf-58" target="_dU9NBsAX1QTBCmmcqbf-81">
          <mxGeometry width="50" height="50" relative="1" as="geometry">
            <mxPoint x="280" y="882" as="sourcePoint" />
            <mxPoint x="303" y="830" as="targetPoint" />
          </mxGeometry>
        </mxCell>
        <mxCell id="_dU9NBsAX1QTBCmmcqbf-104" value="" style="endArrow=none;html=1;rounded=0;exitX=1;exitY=1;exitDx=0;exitDy=0;entryX=0;entryY=0;entryDx=0;entryDy=0;" edge="1" parent="1" source="_dU9NBsAX1QTBCmmcqbf-58" target="_dU9NBsAX1QTBCmmcqbf-76">
          <mxGeometry width="50" height="50" relative="1" as="geometry">
            <mxPoint x="310" y="1040" as="sourcePoint" />
            <mxPoint x="385" y="1080" as="targetPoint" />
          </mxGeometry>
        </mxCell>
        <mxCell id="_dU9NBsAX1QTBCmmcqbf-105" value="" style="endArrow=none;html=1;rounded=0;exitX=0.5;exitY=1;exitDx=0;exitDy=0;entryX=0.5;entryY=0;entryDx=0;entryDy=0;" edge="1" parent="1" source="_dU9NBsAX1QTBCmmcqbf-58" target="_dU9NBsAX1QTBCmmcqbf-72">
          <mxGeometry width="50" height="50" relative="1" as="geometry">
            <mxPoint x="330" y="990" as="sourcePoint" />
            <mxPoint x="360" y="1042" as="targetPoint" />
          </mxGeometry>
        </mxCell>
        <mxCell id="_dU9NBsAX1QTBCmmcqbf-106" value="" style="endArrow=none;html=1;rounded=0;exitX=0;exitY=1;exitDx=0;exitDy=0;" edge="1" parent="1" source="_dU9NBsAX1QTBCmmcqbf-58" target="_dU9NBsAX1QTBCmmcqbf-75">
          <mxGeometry width="50" height="50" relative="1" as="geometry">
            <mxPoint x="360" y="880" as="sourcePoint" />
            <mxPoint x="365" y="945" as="targetPoint" />
          </mxGeometry>
        </mxCell>
        <mxCell id="_dU9NBsAX1QTBCmmcqbf-107" value="" style="endArrow=none;html=1;rounded=0;exitX=0;exitY=0.5;exitDx=0;exitDy=0;entryX=1;entryY=0;entryDx=0;entryDy=0;" edge="1" parent="1" source="_dU9NBsAX1QTBCmmcqbf-58" target="_dU9NBsAX1QTBCmmcqbf-71">
          <mxGeometry width="50" height="50" relative="1" as="geometry">
            <mxPoint x="226" y="1060" as="sourcePoint" />
            <mxPoint x="180" y="1117" as="targetPoint" />
          </mxGeometry>
        </mxCell>
        <mxCell id="_dU9NBsAX1QTBCmmcqbf-108" value="" style="endArrow=none;html=1;rounded=0;exitX=0;exitY=0;exitDx=0;exitDy=0;" edge="1" parent="1" source="_dU9NBsAX1QTBCmmcqbf-58" target="_dU9NBsAX1QTBCmmcqbf-70">
          <mxGeometry width="50" height="50" relative="1" as="geometry">
            <mxPoint x="260" y="1090" as="sourcePoint" />
            <mxPoint x="190" y="1117" as="targetPoint" />
          </mxGeometry>
        </mxCell>
        <mxCell id="_dU9NBsAX1QTBCmmcqbf-109" value="" style="endArrow=none;html=1;rounded=0;exitX=0.5;exitY=1;exitDx=0;exitDy=0;" edge="1" parent="1" source="_dU9NBsAX1QTBCmmcqbf-60" target="_dU9NBsAX1QTBCmmcqbf-77">
          <mxGeometry width="50" height="50" relative="1" as="geometry">
            <mxPoint x="345" y="1030" as="sourcePoint" />
            <mxPoint x="420" y="1070" as="targetPoint" />
          </mxGeometry>
        </mxCell>
        <mxCell id="_dU9NBsAX1QTBCmmcqbf-110" value="N" style="text;html=1;align=center;verticalAlign=middle;whiteSpace=wrap;rounded=0;" vertex="1" parent="1">
          <mxGeometry x="220" y="820" width="60" height="30" as="geometry" />
        </mxCell>
        <mxCell id="_dU9NBsAX1QTBCmmcqbf-111" value="1" style="text;html=1;align=center;verticalAlign=middle;whiteSpace=wrap;rounded=0;" vertex="1" parent="1">
          <mxGeometry x="215" y="900" width="60" height="30" as="geometry" />
        </mxCell>
        <mxCell id="_dU9NBsAX1QTBCmmcqbf-112" value="" style="endArrow=none;html=1;rounded=0;exitX=1;exitY=0;exitDx=0;exitDy=0;entryX=0;entryY=0.5;entryDx=0;entryDy=0;" edge="1" parent="1" source="_dU9NBsAX1QTBCmmcqbf-58" target="_dU9NBsAX1QTBCmmcqbf-83">
          <mxGeometry width="50" height="50" relative="1" as="geometry">
            <mxPoint x="610" y="760" as="sourcePoint" />
            <mxPoint x="222" y="871" as="targetPoint" />
            <Array as="points" />
          </mxGeometry>
        </mxCell>
        <mxCell id="_dU9NBsAX1QTBCmmcqbf-115" value="" style="endArrow=none;html=1;rounded=0;entryX=0;entryY=0.25;entryDx=0;entryDy=0;exitX=1;exitY=0.5;exitDx=0;exitDy=0;" edge="1" parent="1" source="_dU9NBsAX1QTBCmmcqbf-83" target="_dU9NBsAX1QTBCmmcqbf-60">
          <mxGeometry relative="1" as="geometry">
            <mxPoint x="685" y="740" as="sourcePoint" />
            <mxPoint x="570" y="805" as="targetPoint" />
          </mxGeometry>
        </mxCell>
        <mxCell id="_dU9NBsAX1QTBCmmcqbf-116" value="N" style="text;html=1;align=center;verticalAlign=middle;whiteSpace=wrap;rounded=0;" vertex="1" parent="1">
          <mxGeometry x="500" y="940" width="60" height="30" as="geometry" />
        </mxCell>
        <mxCell id="_dU9NBsAX1QTBCmmcqbf-117" value="M" style="text;html=1;align=center;verticalAlign=middle;whiteSpace=wrap;rounded=0;" vertex="1" parent="1">
          <mxGeometry x="360" y="940" width="60" height="30" as="geometry" />
        </mxCell>
        <mxCell id="_dU9NBsAX1QTBCmmcqbf-119" value="commentDate" style="ellipse;whiteSpace=wrap;html=1;" vertex="1" parent="1">
          <mxGeometry x="390" y="550" width="100" height="50" as="geometry" />
        </mxCell>
        <mxCell id="_dU9NBsAX1QTBCmmcqbf-120" value="" style="endArrow=none;html=1;rounded=0;entryX=0.5;entryY=1;entryDx=0;entryDy=0;exitX=0.5;exitY=0;exitDx=0;exitDy=0;" edge="1" parent="1" source="_dU9NBsAX1QTBCmmcqbf-79" target="_dU9NBsAX1QTBCmmcqbf-119">
          <mxGeometry relative="1" as="geometry">
            <mxPoint x="580" y="710" as="sourcePoint" />
            <mxPoint x="695" y="752" as="targetPoint" />
          </mxGeometry>
        </mxCell>
        <mxCell id="_dU9NBsAX1QTBCmmcqbf-121" value="" style="endArrow=none;html=1;rounded=0;exitX=0.333;exitY=0.975;exitDx=0;exitDy=0;exitPerimeter=0;entryX=0.433;entryY=0.05;entryDx=0;entryDy=0;entryPerimeter=0;" edge="1" parent="1" source="_dU9NBsAX1QTBCmmcqbf-59" target="_dU9NBsAX1QTBCmmcqbf-96">
          <mxGeometry width="50" height="50" relative="1" as="geometry">
            <mxPoint x="210" y="780" as="sourcePoint" />
            <mxPoint x="210" y="840" as="targetPoint" />
          </mxGeometry>
        </mxCell>
        <mxCell id="_dU9NBsAX1QTBCmmcqbf-123" value="" style="endArrow=none;html=1;rounded=0;entryX=0.433;entryY=0.967;entryDx=0;entryDy=0;entryPerimeter=0;exitX=0.4;exitY=0;exitDx=0;exitDy=0;exitPerimeter=0;" edge="1" parent="1" source="_dU9NBsAX1QTBCmmcqbf-58" target="_dU9NBsAX1QTBCmmcqbf-96">
          <mxGeometry width="50" height="50" relative="1" as="geometry">
            <mxPoint x="212" y="990" as="sourcePoint" />
            <mxPoint x="220" y="950" as="targetPoint" />
          </mxGeometry>
        </mxCell>
      </root>
    </mxGraphModel>
  </diagram>
</mxfile>
